#!OML:ASF F:\VICON\USERDATA\INSTALL\rory3\rory3.ASF
:FULLY-SPECIFIED
:DEGREES
1179
root -0.162273 17.4305 0.8218 -179.69 -99.3822 180.882
lowerback 5.17836 0.318759 -5.07665
upperback -3.14509 0.192805 3.42816
thorax -6.24919 0.382467 6.4663
lowerneck -23.6152 3.00292 -9.45563
upperneck 19.3923 6.60471 3.40445
head 9.59272 2.73649 3.68704
rclavicle 2.13694e-015 -1.82882e-014
rhumerus 80.4481 -31.5671 -18.8336
rradius 58.9537
rwrist -2.64556
rhand -23.621 4.7098
rfingers 7.12502
rthumb 2.8434 -25.251
lclavicle 2.13694e-015 -1.82882e-014
lhumerus 105.562 33.9414 56.1746
lradius 23.249
lwrist -2.07497
lhand -20.0122 43.8897
lfingers 7.12502
lthumb 6.32803 73.7752
rfemur -20.4659 -14.6914 17.8489
rtibia 51.2379
rfoot -11.9896 19.089
rtoes -3.62411
lfemur -0.300604 3.47204 -22.0652
ltibia 33.8887
lfoot -19.624 11.0434
ltoes -25.014
1180
root -0.120082 17.3651 0.795771 -180.929 -99.7702 182.291
lowerback 5.41864 0.216428 -5.37505
upperback -3.1901 0.0217532 3.41312
thorax -6.41279 0.318231 6.6444
lowerneck -23.5827 2.98315 -9.19679
upperneck 19.1793 6.53486 3.17033
head 9.53556 2.70355 3.54655
rclavicle -1.41137e-014 -1.98785e-014
rhumerus 79.9861 -31.9949 -18.6646
rradius 59.7899
rwrist -3.24204
rhand -23.719 4.45321
rfingers 7.12502
rthumb 2.74875 -25.5088
lclavicle -1.41137e-014 -1.98785e-014
lhumerus 105.842 34.089 56.3741
lradius 23.5041
lwrist -2.97094
lhand -21.4982 43.5104
lfingers 7.12502
lthumb 4.89333 73.4339
rfemur -21.0531 -14.7493 17.3265
rtibia 52.2838
rfoot -12.4867 20.49
rtoes -5.1349
lfemur -0.449957 3.57938 -22.2614
ltibia 33.6305
lfoot -20.7726 11.3198
ltoes -24.2335
1181
root -0.0791146 17.3076 0.7647 -181.108 -100.242 182.626
lowerback 5.64328 0.0506972 -5.56037
upperback -3.17208 -0.223016 3.45082
thorax -6.48598 0.208981 6.82211
lowerneck -23.6979 3.05504 -8.9469
upperneck 18.9862 6.5784 3.0746
head 9.49627 2.73919 3.4764
rclavicle -2.12203e-014 1.11319e-014
rhumerus 79.6029 -32.5562 -18.6475
rradius 60.675
rwrist -3.66719
rhand -23.8463 4.25646
rfingers 7.12502
rthumb 2.62579 -25.7071
lclavicle -2.12203e-014 1.11319e-014
lhumerus 105.523 34.5842 55.8068
lradius 24.1513
lwrist -3.12793
lhand -23.1021 42.9123
lfingers 7.12502
lthumb 3.34447 72.8659
rfemur -21.6037 -14.9102 17.0202
rtibia 53.2682
rfoot -13.0663 21.4162
rtoes -7.47034
lfemur -0.617063 3.47661 -22.2551
ltibia 33.3935
lfoot -21.871 11.7988
ltoes -24.2516
1182
root -0.0409104 17.2621 0.731532 -182.145 -100.776 183.875
lowerback 5.83124 -0.0513259 -5.88503
upperback -3.14513 -0.396577 3.41238
thorax -6.53885 0.138994 6.99043
lowerneck -23.664 3.05008 -9.01049
upperneck 18.5197 6.54278 3.23371
head 9.3187 2.75951 3.51969
rclavicle 6.60959e-015 1.90833e-014
rhumerus 79.0282 -33.2629 -18.4485
rradius 61.5159
rwrist -3.98859
rhand -23.8983 3.93684
rfingers 7.12502
rthumb 2.57561 -26.0274
lclavicle 6.60959e-015 1.90833e-014
lhumerus 104.985 35.0961 55.0367
lradius 25.0773
lwrist -2.68085
lhand -24.7948 42.829
lfingers 7.12502
lthumb 1.70978 72.8019
rfemur -22.1279 -14.9108 16.5106
rtibia 54.2137
rfoot -13.7128 21.72
rtoes -8.43268
lfemur -0.841766 3.38443 -22.4178
ltibia 33.126
lfoot -22.7976 12.0736
ltoes -24.0556
1183
root -0.0061453 17.2262 0.700123 -182.507 -101.31 184.372
lowerback 6.03885 -0.0928885 -5.99535
upperback -3.09732 -0.471034 3.40544
thorax -6.59534 0.108561 7.05854
lowerneck -23.6045 2.95715 -9.32761
upperneck 17.9949 6.44244 3.51404
head 9.10914 2.74828 3.63332
rclavicle 2.78299e-015 6.36111e-015
rhumerus 78.489 -33.9681 -18.2107
rradius 62.1568
rwrist -3.71249
rhand -24.1274 3.78558
rfingers 7.12502
rthumb 2.35429 -26.1812
lclavicle 2.78299e-015 6.36111e-015
lhumerus 103.739 35.8611 53.4689
lradius 26.2995
lwrist -1.37255
lhand -26.466 42.5723
lfingers 7.12502
lthumb 0.0956388 72.5521
rfemur -22.4816 -14.7112 16.0509
rtibia 55.1039
rfoot -14.7489 21.2725
rtoes -8.68248
lfemur -1.00411 3.45735 -22.3783
ltibia 32.8028
lfoot -23.391 11.8821
ltoes -23.2585
1184
root 0.0260819 17.188 0.66224 -183.8 -101.89 185.642
lowerback 6.40744 -0.118734 -6.37749
upperback -3.03433 -0.557614 3.39326
thorax -6.72674 0.0877434 7.28384
lowerneck -23.6074 2.85929 -9.51137
upperneck 17.7028 6.3489 3.58546
head 9.00606 2.71293 3.66466
rclavicle 1.77912e-014 -2.14687e-014
rhumerus 77.99 -34.5985 -17.9289
rradius 62.7235
rwrist -3.14233
rhand -24.6072 3.99519
rfingers 7.12502
rthumb 1.89091 -25.9762
lclavicle 1.77912e-014 -2.14687e-014
lhumerus 101.563 36.9231 50.9518
lradius 27.9701
lwrist 0.764882
lhand -27.6018 42.4997
lfingers 7.12502
lthumb -1.00133 72.4771
rfemur -22.5678 -14.4565 15.335
rtibia 55.9329
rfoot -16.3274 19.9382
rtoes -9.44017
lfemur -0.944767 3.29349 -22.5244
ltibia 32.4391
lfoot -24.033 11.5897
ltoes -22.3086
1185
root 0.0512406 17.1536 0.619528 -186.197 -102.44 187.904
lowerback 6.79377 -0.112043 -6.99573
upperback -2.89683 -0.63044 3.28784
thorax -6.79023 0.0776911 7.54252
lowerneck -23.6793 2.72626 -9.63156
upperneck 17.4468 6.20965 3.58634
head 8.93631 2.65013 3.65937
rclavicle 2.59911e-014 -1.11319e-014
rhumerus 77.5949 -35.197 -17.7933
rradius 63.2723
rwrist -2.69296
rhand -24.6155 4.38145
rfingers 7.12502
rthumb 1.88294 -25.59
lclavicle 2.59911e-014 -1.11319e-014
lhumerus 99.09 37.9758 48.1822
lradius 29.8336
lwrist 2.98483
lhand -28.6026 42.2871
lfingers 7.12502
lthumb -1.96792 72.2577
rfemur -22.3877 -13.9514 14.3023
rtibia 56.6632
rfoot -18.322 17.6938
rtoes -11.0921
lfemur -0.711531 3.09306 -22.9311
ltibia 32.0909
lfoot -24.5082 11.5644
ltoes -22.1299
1186
root 0.0760269 17.1323 0.580606 -186.073 -102.948 187.821
lowerback 6.95489 -0.0408908 -6.96999
upperback -2.81573 -0.545256 3.19687
thorax -6.81165 0.115367 7.42011
lowerneck -23.9043 2.5349 -9.57642
upperneck 17.4326 5.94327 3.63543
head 8.98947 2.53591 3.64016
rclavicle -3.60297e-016 7.15625e-015
rhumerus 77.0134 -35.8372 -17.6248
rradius 63.7053
rwrist -2.1788
rhand -24.657 4.11622
rfingers 7.12502
rthumb 1.84279 -25.8556
lclavicle -3.60297e-016 7.15625e-015
lhumerus 96.8225 38.6804 45.5699
lradius 31.5817
lwrist 4.84785
lhand -29.8875 41.8582
lfingers 7.12502
lthumb -3.20879 71.8138
rfemur -22.3628 -13.3356 13.8925
rtibia 57.2546
rfoot -20.2752 14.9992
rtoes -12.4758
lfemur -0.713452 2.75351 -22.8379
ltibia 31.7406
lfoot -24.9657 11.5247
ltoes -21.1491
1187
root 0.104167 17.1263 0.544716 -183.932 -103.432 185.72
lowerback 7.10624 0.0998939 -6.24182
upperback -2.77081 -0.298905 3.09659
thorax -6.89043 0.203495 6.86129
lowerneck -23.9361 2.31306 -9.29945
upperneck 17.2726 5.56879 3.53273
head 8.97848 2.3739 3.50864
rclavicle -1.04362e-015 3.10104e-014
rhumerus 76.0761 -36.6087 -17.3905
rradius 64.1417
rwrist -1.69586
rhand -25.4406 2.86621
rfingers 7.12502
rthumb 1.086 -27.1108
lclavicle -1.04362e-015 3.10104e-014
lhumerus 95.0412 38.9255 43.5174
lradius 33.2636
lwrist 6.09245
lhand -31.0806 41.1453
lfingers 7.12502
lthumb -4.36099 71.0804
rfemur -22.307 -12.6345 14.0036
rtibia 57.6906
rfoot -21.9346 12.0922
rtoes -12.0535
lfemur -0.815738 2.35239 -22.2573
ltibia 31.4325
lfoot -25.2187 11.4264
ltoes -20.0699
1188
root 0.127605 17.1271 0.504845 -183.965 -103.937 185.681
lowerback 7.32728 0.158542 -6.07322
upperback -2.64449 -0.218317 3.0012
thorax -6.89408 0.230311 6.65196
lowerneck -23.838 2.18375 -9.31172
upperneck 16.9252 5.39803 3.44635
head 8.85648 2.2961 3.44488
rclavicle -2.8302e-014 -1.35174e-014
rhumerus 75.6819 -37.2265 -17.5158
rradius 64.5583
rwrist -1.45265
rhand -26.3827 1.9617
rfingers 7.12502
rthumb 0.176117 -28.018
lclavicle -2.8302e-014 -1.35174e-014
lhumerus 92.8579 39.2968 41.5016
lradius 35.0438
lwrist 6.80818
lhand -31.8941 40.2693
lfingers 7.12502
lthumb -5.14645 70.1868
rfemur -22.0075 -11.9429 13.5183
rtibia 58.0115
rfoot -23.4266 9.26326
rtoes -10.8154
lfemur -0.803218 1.99264 -22.1955
ltibia 31.2436
lfoot -25.2482 11.5771
ltoes -20.2589
1189
root 0.144466 17.1274 0.463104 -185.083 -104.401 186.733
lowerback 7.45786 0.198605 -6.26274
upperback -2.48461 -0.190032 2.96071
thorax -6.80338 0.243944 6.71312
lowerneck -23.8708 2.05105 -9.61869
upperneck 16.7433 5.31671 3.46326
head 8.79698 2.24611 3.48363
rclavicle 9.95787e-015 -1.66979e-014
rhumerus 75.8598 -37.6561 -17.9173
rradius 64.6879
rwrist -1.28814
rhand -26.8541 1.85669
rfingers 7.12502
rthumb -0.279139 -28.1229
lclavicle 9.95787e-015 -1.66979e-014
lhumerus 90.8093 39.8377 39.5544
lradius 36.3105
lwrist 7.08406
lhand -32.5348 39.3195
lfingers 7.12502
lthumb -5.76508 69.2211
rfemur -21.6086 -11.2818 12.7208
rtibia 58.1839
rfoot -24.7026 6.49064
rtoes -9.32403
lfemur -0.796172 1.6802 -22.4288
ltibia 31.1898
lfoot -25.037 11.9107
ltoes -21.0057
